<?xml version="1.0" encoding="utf-8"?>
<!-- Generator: Adobe Illustrator 24.3.0, SVG Export Plug-In . SVG Version: 6.00 Build 0)  -->
<svg version="1.1" id="Layer_1" xmlns="http://www.w3.org/2000/svg" xmlns:xlink="http://www.w3.org/1999/xlink" x="0px" y="0px"
	 viewBox="0 0 229.6 104.9" style="enable-background:new 0 0 229.6 104.9;" xml:space="preserve">
<style type="text/css">
	.st0{fill:#20214F;}
</style>
<g id="Layer_1_1_">
</g>
<path class="st0" d="M5.4,17.1c-2.7,2.7-4.1,5.7-4.1,9.1c0,3.7,1.5,6.8,4.6,9.4c2,1.3,4.2,2,6.4,2l15,0l1.8,0.4
	c2.3,1.1,3.4,2.8,3.4,4.9l-0.2,1.6c-0.5,1.8-1.8,4.2-6.5,4.2H1.2v5.6h25.3l2.6-0.1l0.3,0c2.3-0.6,4.1-1.6,5.7-3c1.7-2,2.8-4.2,3-6.6
	l0-2.7l-0.3-1.6c-0.4-1.9-1.5-3.7-3.4-5.5c-1.8-1.5-3.8-2.4-6.3-2.7l-16.1,0c-0.5,0-1.5-0.3-2.8-1.2C7.8,29.4,7,28,7,26.3
	c0-0.6,0.1-1.4,0.4-2.2c0.9-2.7,2.9-3.9,6.3-3.9h24.6v-5.7h-24C10.6,14.5,7.6,15.3,5.4,17.1z"/>
<rect x="41.8" y="14.5" class="st0" width="5.6" height="39.7"/>
<rect x="41.8" y="1.1" class="st0" width="5.6" height="9"/>
<path class="st0" d="M83,18.3c-3.3-2.2-7-3.4-11.1-3.7c-3.9,0-7.3,0.6-9.9,1.9c-0.6,0.2-1.7,0.7-4.8,3.1c-0.2,0.2-0.4,0.4-0.6,0.6
	v-5.7h-5.7v39.9h5.7V36.8c0-2.4,0.1-4.5,0.4-6c0.8-2.8,2-5,3.8-6.6c0.2-0.3,1-0.9,2.9-2.1c2.7-1.2,5.1-1.7,7.1-1.7
	c3.1,0.2,4.5,0.6,5.2,0.8c6.2,2.4,9.2,6.9,9.2,13.7v19.5h5.7V35.2c0-2.8-0.2-4.8-0.5-6.1C89,24.5,86.5,20.9,83,18.3z"/>
<path class="st0" d="M124.9,39.3c-0.1,0.6-0.4,1-0.6,1.4c-2.7,5.3-7.1,7.9-13.4,7.9c-1.2,0-2.7-0.3-4.6-0.9c-1.7-0.5-3.8-1.8-6-3.9
	c-1.8-2.4-2.8-4.9-3.1-7.4h28.1c0,0,0.2,0,0.3,0c1.8,0,5.3,0,5.3,0h0.2v-2.3c0-4-1.1-7.7-3.4-11.2l-2-2.5c-4.1-3.8-9.1-5.8-15-5.8h0
	c-2.3,0.2-4.6,0.7-6.9,1.4c-4.4,1.7-7.8,4.5-10,8.3c-1.6,3.5-2.5,6.9-2.5,10.1c0,3.2,0.7,6.4,2.1,9.4c0.6,1.7,2.4,3.8,5.7,6.8
	c3.7,2.4,7.5,3.6,11.3,3.6h1.9c1.6,0,3.7-0.4,6.5-1.2c3.7-1.5,6.7-3.8,9.1-6.9c1.5-2.6,2.5-5,2.9-6.9L124.9,39.3L124.9,39.3z
	 M100.2,25.4c1.7-1.7,3.4-3,5-3.7c2.7-0.8,4.8-1.2,6.2-1.2c1.7,0,3.6,0.4,5.7,1.2c2.5,0.9,4.5,2.5,6.1,4.8c0.8,1.1,1.4,2.5,1.9,4.4
	H97.6C97.9,29,98.8,27.2,100.2,25.4z"/>
<path class="st0" d="M148.9,14.6c-3.2,0-6.1,1-8.7,3v-3.1h-5.6v39.7h5.7V30.1c0-3.6,0.7-5.2,1.3-6.1c1.7-2.6,4.1-3.9,7.5-3.9h1.5
	v-4.1l-0.2-1.5C150.4,14.6,148.9,14.6,148.9,14.6z"/>
<path class="st0" d="M182.4,20.2c-4.3-3.7-8.9-5.5-13.9-5.5c-5.6,0-10.4,1.9-14.7,5.6c-1.8,2-3,3.7-3.8,5.2c-1.3,3.6-2,6.5-2,8.9
	c0,3.1,0.8,6.4,2.4,9.9c1,2.1,2.8,4.1,5.7,6.5c4,2.4,7.7,3.6,11,3.6h0.5c2.5,0,4.9-0.3,7.2-1c3.1-1.2,5.6-2.7,7.5-4.4
	c-0.1,1.7-0.4,3.3-0.9,4.7c-1.3,3.2-3.2,5.4-6,6.7c-1.4,0.8-3.6,1.4-6.5,1.8l-1.4-0.2c-2.4,0-4.9-0.7-7.2-2l-2.2-1.7
	c-1.9-2.1-3-4-3.3-5.5l-0.2-1.3h-5.9l0.3,1.7c0.4,3,2.1,6,4.9,9.2c4.2,3.6,8.7,5.4,13.3,5.4h0.4c3.4,0,4.5-0.2,5.1-0.4
	c2.3-0.4,4.9-1.5,7.8-3.4c4.9-3.8,7.3-8.8,7.3-14.8V14.6h-5.6L182.4,20.2L182.4,20.2z M160.3,46.4c-0.2-0.1-1.1-0.5-3.3-2.7
	c-2-2.7-3-5.5-3-8.6v-0.1v-1c0-5.3,2.4-9.2,7.2-12c0.9-0.5,2.8-1.2,7-1.7c1.5,0,3.4,0.5,6,1.4c0.4,0.1,1.4,0.5,3.5,2.1
	c3.1,3,4.6,6.5,4.6,10.7c0,1.7-0.3,3.4-1,5.3c-0.2,1.1-1.1,3-3.9,5.7c-3.1,2-6,3-8.6,3l-1.1,0l-1.2-0.1c-1.6,0-3.6-0.6-5.8-1.9
	L160.3,46.4z"/>
<path class="st0" d="M219.1,17.5c-3.6-1.9-7.4-2.9-11.2-2.9h0c-6.9,0.3-12.3,3.1-16.2,8.6c-2.1,3.7-3.2,7.4-3.2,11.1
	c0,6.9,2.7,12.4,8,16.4c3.7,2.3,7.3,3.5,10.8,3.5h0.2c2.5,0,4.2,0,5.1-0.4c1.7-0.1,3.8-0.9,6.1-2.3c1.6-0.6,3.5-2.2,6-5.1
	c2.3-3.6,3.5-7.3,3.5-11.2v-1.4c0-2.1-0.4-4.3-1.1-6.4C225.7,23.1,223,19.8,219.1,17.5z M222.7,34.3c0,2.2-0.5,4.6-1.5,6.9
	c-0.5,1.2-1.7,2.6-3.3,4.2c-3.1,2.1-6.2,3.1-9.1,3.1h-0.6c-1.2,0-2.8-0.3-4.8-0.8c-2.4-1-4.3-2.2-5.7-3.8c-2.3-2.8-3.4-5.9-3.4-9.3
	c0.2-2.7,0.6-4.6,1.1-5.8c1.1-2.7,2.9-4.8,5.5-6.4c2.7-1.4,5.3-2,7.7-2.1c2.1,0.1,4,0.5,5.5,1.1c3.1,1.2,5.5,3.2,7.1,6.1
	C222.1,30,222.7,32.3,222.7,34.3z"/>
<path class="st0" d="M23.5,82c-2.7-2.5-5.9-3.7-9.7-3.7c-1.6,0.2-3.1,0.5-4.5,0.9c-2.9,1.1-5,2.9-6.4,5.3C1.8,86.8,1.2,89,1.2,91
	c0,2.1,0.5,4.1,1.4,6.2c0.4,1,1.6,2.4,3.6,4.2c2.4,1.6,4.9,2.4,7.3,2.4h1.3c1,0,2.4-0.2,4.1-0.7c2.4-1,4.3-2.4,5.9-4.4
	c1.3-2.3,1.9-4,1.9-5.3v-0.2h-1.9c-0.2,1-0.4,1.9-0.7,2.6c-2.1,4.1-5.5,6.1-10.2,6.1c-0.9,0-2.1-0.2-3.5-0.7
	c-1.4-0.4-2.9-1.4-4.7-3.1c-1.6-2.1-2.4-4.2-2.4-6.4v-0.4h23.6v-0.6c0-2.6-0.7-5-2.1-7.2L23.5,82z M24.9,89.5H3.4
	c0-1.7,0.7-3.5,2.2-5.5c1.3-1.3,2.6-2.2,3.9-2.8c2-0.6,3.6-0.9,4.6-0.9c1.3,0,2.7,0.3,4.3,0.9c1.9,0.7,3.5,1.9,4.7,3.7
	C24,85.8,24.6,87.4,24.9,89.5L24.9,89.5L24.9,89.5z"/>
<rect x="29.3" y="68.9" class="st0" width="1.9" height="34.9"/>
<path class="st0" d="M55.9,82c-2.7-2.5-5.9-3.7-9.7-3.7c-1.6,0.2-3.1,0.5-4.5,0.9c-2.9,1.1-5,2.9-6.4,5.3c-1.1,2.3-1.6,4.5-1.6,6.6
	c0,2.1,0.5,4.1,1.4,6.2c0.4,1,1.6,2.4,3.6,4.2c2.4,1.6,4.9,2.4,7.3,2.4h1.3c1,0,2.4-0.2,4.1-0.7c2.4-1,4.3-2.4,5.9-4.4
	c1.3-2.3,1.9-4,1.9-5.3v-0.2h-1.9c-0.2,1-0.4,1.9-0.7,2.6c-2.1,4.1-5.5,6.1-10.2,6.1c-0.9,0-2.1-0.2-3.5-0.7c-1.4-0.4-3-1.4-4.7-3.1
	c-1.6-2.1-2.4-4.2-2.4-6.4v-0.4h23.6v-0.6c0-2.6-0.7-5-2.1-7.2L55.9,82z M57.3,89.5H35.8c0-1.7,0.7-3.5,2.2-5.5
	c1.3-1.3,2.6-2.2,3.9-2.8c2-0.6,3.6-0.9,4.6-0.9c1.3,0,2.7,0.3,4.3,0.9c1.9,0.7,3.5,1.9,4.7,3.7C56.4,85.8,57,87.4,57.3,89.5
	L57.3,89.5L57.3,89.5z"/>
<path class="st0" d="M79.8,93.5c-2.2-1.3-4.2-2-6.2-2.2v-0.1c0.1,0,0.5-0.2,1-0.7c0.4-0.4,0.7-0.7,0.8-0.7c2.2-2.3,3.5-4.2,4.1-5.7
	c0.8-1.6,1.3-3.6,1.5-6.1h-1.8l-0.2,1.6c-0.4,2.5-1.6,4.8-3.4,7.1c-3.3,3.7-7.3,5.6-11.9,5.6h-0.1V68.9h-1.9v34.9h1.9v-9.3h0.1
	l3.2-0.4c2.6-0.6,4.3-0.9,5-0.9c4.1,0,7.3,1.6,9.5,5c1,2.1,1.5,3.6,1.5,4.7v0.9h1.9v-0.2C84.8,99.5,83.1,96.2,79.8,93.5z"/>
<path class="st0" d="M93.8,99.7c-1.9-1.8-3.1-3.2-3.5-4.3c-0.7-1.8-1.1-3.5-1.1-5V80h11.1v-1.9H89.1v-9.3h-1.9v20.8
	c0,3.9,1.1,7.2,3.4,9.8c2.8,2.9,6.2,4.3,10.2,4.3h0.1v-1.9h-0.2C98.4,101.9,96.1,101.2,93.8,99.7z"/>
<path class="st0" d="M105.2,81.8v-3.6h-1.8v25.6h1.9V88c0-2.2,0.4-3.8,1.1-4.8c1.4-2.1,3.4-3.2,6-3.2h0.1v-1.8h-0.2
	C109.5,78.3,107.2,79.4,105.2,81.8z"/>
<path class="st0" d="M134.7,80.1c-2.4-1.2-4.8-1.9-7.3-1.9c-4.5,0.2-7.9,2-10.4,5.4c-1.4,2.4-2.1,4.8-2.1,7.2c0,4.5,1.7,8,5.1,10.6
	c2.4,1.5,4.7,2.3,7,2.3h0.2c2.2,0,3.2-0.1,3.2-0.2c1.1,0,2.5-0.5,4.2-1.5c0.9-0.3,2.1-1.4,3.7-3.2c1.5-2.3,2.3-4.7,2.3-7.2v-1
	c0-1.4-0.2-2.8-0.7-4.1C138.8,83.7,137.1,81.6,134.7,80.1z M137.5,96.1c-0.4,1-1.3,2.1-2.7,3.4c-2.3,1.6-4.6,2.4-6.9,2.4h-0.4
	c-0.9,0-2.1-0.2-3.7-0.7c-1.8-0.7-3.3-1.7-4.4-2.9c-1.7-2.1-2.6-4.5-2.6-7.2c0.2-2,0.4-3.4,0.8-4.4c0.9-2.1,2.3-3.7,4.3-5
	c2.1-1,4-1.5,5.9-1.5c1.6,0.1,3,0.4,4.1,0.8c2.4,0.9,4.3,2.5,5.5,4.8c0.8,1.9,1.2,3.6,1.2,5.1C138.7,92.6,138.3,94.4,137.5,96.1z"/>
<path class="st0" d="M163.7,80.6c-2.2-1.4-4.6-2.2-7.1-2.4c-2.6,0-4.8,0.4-6.6,1.3c-0.3,0-1.3,0.6-2.9,1.9c-1,0.9-1.7,1.8-2.2,2.6
	v-5.8H143v25.7h1.9V92.6c0-1.7,0.1-3.2,0.3-4.5c0.6-2.1,1.5-3.8,2.8-5c0.4-0.4,1.1-1,2.4-1.7c2-0.9,3.8-1.3,5.4-1.3
	c1.8,0.1,3.1,0.4,3.9,0.6c4.7,1.8,7.1,5.3,7.1,10.5v12.5h1.9V91.5c0-1.8-0.1-3.2-0.3-4C167.5,84.6,165.9,82.3,163.7,80.6z"/>
<rect x="171.1" y="68.9" class="st0" width="1.8" height="4.2"/>
<rect x="171.1" y="78.2" class="st0" width="1.8" height="25.6"/>
<path class="st0" d="M193.4,93.5c-2.2-1.3-4.2-2-6.2-2.2v-0.1c0.1,0,0.5-0.2,1-0.7c0.4-0.4,0.7-0.7,0.8-0.7c2.2-2.3,3.5-4.2,4.1-5.7
	c0.8-1.6,1.3-3.6,1.5-6.1h-1.8l-0.2,1.6c-0.4,2.5-1.6,4.8-3.4,7.1c-3.3,3.7-7.3,5.6-11.9,5.6h-0.1V68.9h-1.9v34.9h1.9v-9.3h0.1
	l3.2-0.4c2.6-0.6,4.3-0.9,5-0.9c4.1,0,7.3,1.6,9.5,5c1,2.1,1.5,3.6,1.5,4.7v0.9h1.9v-0.2C198.4,99.5,196.7,96.2,193.4,93.5z"/>
<path class="st0" d="M224.7,78.2V84c-2.5-3.8-6.3-5.8-11.5-5.8c-0.6,0-1.7,0.2-3.3,0.5c-3.3,1-5.8,2.9-7.5,5.8
	c-1.1,2.3-1.6,4.5-1.6,6.4c0,1.2,0.2,2.7,0.7,4.4c0.9,2.7,2.4,4.7,4.5,6.2c2.1,1.5,4.8,2.3,8,2.3h0.7c0.7,0,1.7-0.2,2.8-0.5
	c3.2-1.1,5.6-2.8,7.1-5.2v5.7h1.8V78.2H224.7z M222.4,97.9c-2.4,2.6-5.2,3.9-8.4,3.9h-0.5c-1.6,0-3.3-0.4-5.1-1.3
	c-3.6-2.1-5.4-5.1-5.4-9.2V91l-0.1-0.1l0.1-0.1v-0.2c0-2.8,1-5.3,3-7.5c2.4-2,4.9-3,7.6-3h0.5c2.3,0,4.6,0.8,6.7,2.3
	c2.7,2.2,4,5,4,8.4C224.6,93.4,223.9,95.8,222.4,97.9z"/>
</svg>
